#!OML:ASF F:\VICON\USERDATA\INSTALL\rory3\rory3.ASF
:FULLY-SPECIFIED
:DEGREES
2607
root 14.1358 17.7949 -3.0685 -180.328 37.7533 183.206
lowerback 10.5799 3.40272 0.990408
upperback 0.189536 4.67988 -0.168276
thorax -5.63216 2.29104 -1.44301
lowerneck -21.8079 -1.85373 -7.50663
upperneck 30.3482 0.0123227 3.42839
head 14.0354 -0.0254794 2.76355
rclavicle -1.21756e-013 4.37326e-015
rhumerus -31.4318 -9.25242 -83.0507
rradius 29.8375
rwrist 6.34658
rhand -16.4102 9.9219
rfingers 7.12502
rthumb 9.80443 -19.8299
lclavicle -1.21756e-013 4.37326e-015
lhumerus -38.7324 5.73725 82.2232
lradius 30.0491
lwrist -7.52068
lhand -20.0814 23.4368
lfingers 7.12502
lthumb 6.26119 53.3243
rfemur 7.46763 -3.48872 22.6794
rtibia 37.4653
rfoot -7.17287 -1.13814
rtoes -17.5198
lfemur -18.8778 1.24221 -22.6211
ltibia 18.2877
lfoot 1.62545 -0.169881
ltoes 4.93043
2608
root 14.1897 17.8017 -3.19193 -180.517 37.1952 183.37
lowerback 10.7252 3.26995 1.25597
upperback 0.279111 4.54464 -0.100362
thorax -5.608 2.22066 -1.50603
lowerneck -21.7336 -1.84334 -7.70635
upperneck 30.351 0.0691009 3.53891
head 14.0174 -0.00565172 2.85303
rclavicle 3.35449e-014 -3.18055e-015
rhumerus -31.7879 -9.53779 -82.9034
rradius 29.9907
rwrist 6.02656
rhand -16.4685 9.64867
rfingers 7.12502
rthumb 9.7482 -20.1057
lclavicle 3.35449e-014 -3.18055e-015
lhumerus -38.641 5.79255 82.2267
lradius 29.8038
lwrist -7.60064
lhand -19.8221 23.5227
lfingers 7.12502
lthumb 6.51153 53.4026
rfemur 6.78663 -4.02874 22.4591
rtibia 39.4858
rfoot -5.03711 -0.0366998
rtoes -15.391
lfemur -18.2564 1.60614 -22.7201
ltibia 18.4385
lfoot 2.04434 -1.02445
ltoes 9.00334
2609
root 14.2463 17.811 -3.32205 -181.048 36.8004 183.003
lowerback 10.7169 3.20209 1.14118
upperback 0.47975 4.43928 -0.212466
thorax -5.39499 2.17793 -1.53443
lowerneck -21.948 -1.83327 -7.83296
upperneck 30.4815 0.100276 3.70509
head 14.1179 0.0154233 2.95493
rclavicle -1.18525e-014 5.56597e-015
rhumerus -31.9932 -10.0881 -82.7986
rradius 29.9806
rwrist 6.10988
rhand -16.5268 10.0583
rfingers 7.12502
rthumb 9.69195 -19.6987
lclavicle -1.18525e-014 5.56597e-015
lhumerus -38.4086 5.94191 82.1086
lradius 29.5785
lwrist -7.90115
lhand -19.4465 23.5622
lfingers 7.12502
lthumb 6.87413 53.4306
rfemur 6.09218 -4.50026 21.6701
rtibia 41.5587
rfoot -2.62127 1.08243
rtoes -12.5627
lfemur -17.4642 1.71128 -23.2391
ltibia 18.5104
lfoot 1.90188 -1.92592
ltoes 9.18323
2610
root 14.3059 17.8228 -3.45149 -181.51 36.6371 182.54
lowerback 10.611 3.21952 0.855169
upperback 0.598946 4.42431 -0.321887
thorax -5.22378 2.18123 -1.47499
lowerneck -21.9497 -1.7907 -7.90545
upperneck 30.4628 0.170681 3.76617
head 14.1046 0.0467556 3.00445
rclavicle -9.91439e-014 1.03368e-014
rhumerus -32.2219 -10.394 -82.73
rradius 29.8439
rwrist 6.0223
rhand -16.5302 10.5459
rfingers 7.12502
rthumb 9.6886 -19.2112
lclavicle -9.91439e-014 1.03368e-014
lhumerus -38.1843 5.91424 82.0907
lradius 29.3008
lwrist -8.08277
lhand -19.5611 23.7436
lfingers 7.12502
lthumb 6.76353 53.6156
rfemur 5.19282 -4.65505 20.8452
rtibia 43.6656
rfoot 0.0816434 2.05926
rtoes -9.91329
lfemur -16.703 1.71342 -23.763
ltibia 18.3866
lfoot 1.81218 -2.45064
ltoes 9.43804
2611
root 14.3621 17.8333 -3.57648 -181.86 36.4776 182.09
lowerback 10.5186 3.26626 0.561693
upperback 0.625472 4.44676 -0.419913
thorax -5.15803 2.19963 -1.40964
lowerneck -21.8664 -1.75877 -7.86085
upperneck 30.4152 0.25091 3.60868
head 14.0611 0.0663667 2.94474
rclavicle 8.93289e-014 1.66979e-014
rhumerus -32.5451 -10.466 -82.6965
rradius 29.8208
rwrist 5.64787
rhand -16.518 10.2502
rfingers 7.12502
rthumb 9.7004 -19.5064
lclavicle 8.93289e-014 1.66979e-014
lhumerus -38.0081 5.58209 82.2053
lradius 29.022
lwrist -8.15982
lhand -19.2867 23.9771
lfingers 7.12502
lthumb 7.02845 53.8404
rfemur 4.07947 -4.77186 20.073
rtibia 45.7971
rfoot 2.69572 3.04591
rtoes -8.59951
lfemur -16.05 1.77288 -24.2646
ltibia 18.0602
lfoot 2.17962 -2.74791
ltoes 11.5694
2612
root 14.4158 17.8457 -3.70084 -182.407 36.2064 181.482
lowerback 10.5392 3.28595 0.14934
upperback 0.717399 4.42245 -0.552861
thorax -5.09411 2.19891 -1.31261
lowerneck -21.9477 -1.70679 -7.70215
upperneck 30.3924 0.353781 3.36606
head 14.0626 0.0938909 2.83702
rclavicle -1.37161e-013 1.19271e-015
rhumerus -32.8223 -10.5208 -82.704
rradius 29.9065
rwrist 5.40325
rhand -16.6747 9.52531
rfingers 7.12502
rthumb 9.54921 -20.2383
lclavicle -1.37161e-013 1.19271e-015
lhumerus -37.8139 5.29461 82.3057
lradius 28.8536
lwrist -8.36686
lhand -19.0422 23.7249
lfingers 7.12502
lthumb 7.2644 53.5802
rfemur 3.03422 -4.94674 19.166
rtibia 47.9122
rfoot 4.97124 4.0503
rtoes -7.52949
lfemur -15.2035 1.80756 -24.9555
ltibia 17.6203
lfoot 2.47824 -3.09854
ltoes 12.16
2613
root 14.4698 17.856 -3.82296 -183.022 35.9576 180.883
lowerback 10.6076 3.32167 -0.251049
upperback 0.82664 4.42281 -0.690364
thorax -5.03691 2.21037 -1.23304
lowerneck -21.9606 -1.67748 -7.74043
upperneck 30.4094 0.402553 3.41091
head 14.069 0.11834 2.87175
rclavicle -8.29429e-014 -1.31198e-014
rhumerus -33.0553 -10.5305 -82.7347
rradius 29.8613
rwrist 5.17748
rhand -16.8379 9.26946
rfingers 7.12502
rthumb 9.39179 -20.5013
lclavicle -8.29429e-014 -1.31198e-014
lhumerus -37.6561 4.93302 82.4138
lradius 28.8364
lwrist -8.55452
lhand -19.0154 23.3885
lfingers 7.12502
lthumb 7.29029 53.2429
rfemur 2.04881 -5.00429 18.3562
rtibia 50.0084
rfoot 7.06284 5.04884
rtoes -6.68817
lfemur -14.1761 1.82581 -25.6506
ltibia 17.118
lfoot 2.52745 -3.33517
ltoes 11.9825
2614
root 14.5208 17.8619 -3.93928 -183.519 35.7165 180.351
lowerback 10.6683 3.37107 -0.568667
upperback 0.882134 4.44942 -0.823237
thorax -5.02551 2.23152 -1.20031
lowerneck -21.8295 -1.70093 -7.95171
upperneck 30.4227 0.394439 3.5773
head 14.0469 0.118405 2.97438
rclavicle 3.35449e-015 -5.96354e-015
rhumerus -33.258 -10.4257 -82.7876
rradius 29.7556
rwrist 4.89971
rhand -16.9604 9.21351
rfingers 7.12502
rthumb 9.27356 -20.5625
lclavicle 3.35449e-015 -5.96354e-015
lhumerus -37.4833 4.38096 82.6296
lradius 28.8971
lwrist -8.48339
lhand -18.8822 23.5837
lfingers 7.12502
lthumb 7.41889 53.4337
rfemur 0.984518 -5.04093 17.6621
rtibia 52.0974
rfoot 8.87722 5.95341
rtoes -5.03636
lfemur -13.2853 1.83267 -26.2961
ltibia 16.6736
lfoot 2.51695 -3.58186
ltoes 11.9289
2615
root 14.567 17.8692 -4.04993 -183.896 35.4257 179.983
lowerback 10.8302 3.3651 -0.777411
upperback 0.877294 4.41343 -0.900848
thorax -5.13075 2.21785 -1.17099
lowerneck -21.6742 -1.68142 -8.05879
upperneck 30.4707 0.475581 3.56511
head 14.0296 0.145074 3.00376
rclavicle 2.99171e-014 2.0276e-014
rhumerus -33.5041 -10.058 -82.8948
rradius 29.7568
rwrist 4.54084
rhand -16.8786 9.11835
rfingers 7.12502
rthumb 9.3525 -20.6542
lclavicle 2.99171e-014 2.0276e-014
lhumerus -37.3933 3.87528 82.8452
lradius 29.0267
lwrist -8.33337
lhand -18.8242 23.651
lfingers 7.12502
lthumb 7.47487 53.499
rfemur -0.0953766 -5.0353 17.1295
rtibia 54.1616
rfoot 10.0938 6.38772
rtoes -1.96392
lfemur -12.5625 1.86603 -26.7947
ltibia 16.4348
lfoot 2.5493 -3.94436
ltoes 11.9993
2616
root 14.614 17.8771 -4.15995 -184.216 35.1568 179.73
lowerback 11.0075 3.36383 -0.943648
upperback 0.842981 4.38775 -0.937089
thorax -5.27544 2.20785 -1.12605
lowerneck -21.6553 -1.58119 -7.88008
upperneck 30.6623 0.667563 3.33162
head 14.0976 0.221856 2.9212
rclavicle 3.39176e-015 -5.56597e-015
rhumerus -33.8525 -9.6795 -82.9467
rradius 29.7223
rwrist 4.53438
rhand -16.6895 9.44037
rfingers 7.12502
rthumb 9.53497 -20.3239
lclavicle 3.39176e-015 -5.56597e-015
lhumerus -37.4189 3.44515 83.0084
lradius 29.2235
lwrist -8.31113
lhand -19.0809 23.2058
lfingers 7.12502
lthumb 7.22708 53.0624
rfemur -1.14155 -4.94595 16.7405
rtibia 56.1666
rfoot 10.2046 6.31776
rtoes -0.831043
lfemur -11.9222 1.82872 -27.1595
ltibia 16.3722
lfoot 2.51743 -4.21488
ltoes 13.5115
2617
root 14.662 17.8826 -4.26828 -184.414 34.8165 179.655
lowerback 11.1336 3.33382 -0.992442
upperback 0.856686 4.34282 -0.91089
thorax -5.33732 2.18723 -1.07268
lowerneck -21.7254 -1.49376 -7.81757
upperneck 30.8451 0.829577 3.26352
head 14.1823 0.293131 2.92079
rclavicle 7.40721e-014 8.34896e-015
rhumerus -33.9934 -9.50419 -82.8846
rradius 29.5027
rwrist 4.89005
rhand -16.2924 9.88072
rfingers 7.12502
rthumb 9.91807 -19.8656
lclavicle 7.40721e-014 8.34896e-015
lhumerus -37.4174 3.05226 83.2013
lradius 29.5507
lwrist -8.39003
lhand -19.4542 22.7945
lfingers 7.12502
lthumb 6.86672 52.6631
rfemur -2.13777 -5.00174 16.5243
rtibia 58.0373
rfoot 9.25951 5.93708
rtoes -2.57926
lfemur -11.3334 1.57899 -27.358
ltibia 16.3544
lfoot 2.34835 -4.36013
ltoes 14.9048
2618
root 14.7092 17.886 -4.37559 -184.609 34.4218 179.599
lowerback 11.2447 3.29148 -1.04596
upperback 0.899651 4.28353 -0.860305
thorax -5.36223 2.16051 -0.986608
lowerneck -21.6781 -1.42092 -7.82833
upperneck 30.892 0.990162 3.16016
head 14.1831 0.350551 2.91146
rclavicle -6.79719e-014 7.15625e-015
rhumerus -33.9458 -9.62088 -82.7453
rradius 29.1768
rwrist 5.49313
rhand -15.7719 10.1497
rfingers 7.12502
rthumb 10.4202 -19.5721
lclavicle -6.79719e-014 7.15625e-015
lhumerus -37.4014 2.65581 83.424
lradius 30.0137
lwrist -8.56857
lhand -19.2482 22.9954
lfingers 7.12502
lthumb 7.06555 52.8575
rfemur -3.11277 -5.14596 16.3399
rtibia 59.7621
rfoot 7.85234 5.2396
rtoes -4.61346
lfemur -10.7118 1.12771 -27.5439
ltibia 16.3193
lfoot 2.13022 -4.3135
ltoes 15.6217
2619
root 14.7576 17.8867 -4.48934 -185.062 33.9655 179.254
lowerback 11.3691 3.25791 -1.32581
upperback 0.961881 4.20675 -0.871418
thorax -5.38565 2.13093 -0.836033
lowerneck -21.6941 -1.33424 -7.62505
upperneck 31.0038 1.20614 2.76197
head 14.2277 0.415088 2.7585
rclavicle -8.41605e-014 8.34896e-015
rhumerus -33.9892 -9.59223 -82.649
rradius 28.8854
rwrist 5.96916
rhand -15.6635 10.7596
rfingers 7.12502
rthumb 10.5248 -18.9569
lclavicle -8.41605e-014 8.34896e-015
lhumerus -37.4473 2.56472 83.5285
lradius 30.5018
lwrist -8.89925
lhand -18.8851 23.1357
lfingers 7.12502
lthumb 7.41609 52.9858
rfemur -3.91414 -5.38245 15.8316
rtibia 61.3231
rfoot 6.30389 4.42874
rtoes -6.32967
lfemur -9.91912 0.570876 -28.0334
ltibia 16.2543
lfoot 1.87662 -4.23144
ltoes 15.5085
2620
root 14.8049 17.8872 -4.59964 -185.559 33.3065 178.852
lowerback 11.5391 3.13908 -1.64523
upperback 1.05685 4.01142 -0.922695
thorax -5.39835 2.04472 -0.687387
lowerneck -21.7736 -1.2501 -7.55956
upperneck 31.1305 1.38214 2.6241
head 14.2921 0.481189 2.72923
rclavicle -1.35621e-013 5.1684e-015
rhumerus -34.0681 -9.27312 -82.7205
rradius 28.8377
rwrist 6.30679
rhand -15.8511 11.055
rfingers 7.12502
rthumb 10.3438 -18.6706
lclavicle -1.35621e-013 5.1684e-015
lhumerus -37.3357 2.47496 83.6111
lradius 30.8653
lwrist -8.92304
lhand -19.1354 23.0652
lfingers 7.12502
lthumb 7.17449 52.9236
rfemur -4.65844 -5.72767 15.2737
rtibia 62.7339
rfoot 4.72751 3.35958
rtoes -6.74703
lfemur -9.07356 0.0715983 -28.605
ltibia 16.0929
lfoot 1.62726 -4.36334
ltoes 15.7857
